<svg width="29" height="29" viewBox="0 0 29 29" fill="none" xmlns="http://www.w3.org/2000/svg">
<path d="M10.6072 25.1172H17.5689" stroke="black" stroke-width="1.74041" stroke-linecap="round" stroke-linejoin="round"/>
<path d="M6.27795 12.9341C6.27795 11.9085 6.47997 10.8929 6.87246 9.94533C7.26496 8.99776 7.84024 8.13678 8.56548 7.41155C9.29071 6.68631 10.1517 6.11103 11.0993 5.71853C12.0468 5.32604 13.0624 5.12402 14.0881 5.12402C15.1137 5.12402 16.1293 5.32604 17.0769 5.71853C18.0244 6.11103 18.8854 6.68631 19.6106 7.41155C20.3359 8.13678 20.9112 8.99776 21.3036 9.94533C21.6961 10.8929 21.8982 11.9085 21.8982 12.9341C21.8982 16.8283 22.714 19.0908 23.4319 20.3309C23.5081 20.4629 23.5484 20.6127 23.5485 20.7652C23.5486 20.9177 23.5087 21.0676 23.4327 21.1998C23.3567 21.332 23.2472 21.4419 23.1154 21.5185C22.9835 21.5951 22.8338 21.6357 22.6813 21.6362H5.49477C5.34227 21.6357 5.1926 21.5951 5.06074 21.5185C4.92888 21.4419 4.81946 21.332 4.74344 21.1998C4.66743 21.0676 4.62749 20.9177 4.62762 20.7652C4.62776 20.6127 4.66796 20.4629 4.74421 20.3309C5.46213 19.0908 6.27795 16.8283 6.27795 12.9341Z" stroke="black" stroke-width="1.74041" stroke-linecap="round" stroke-linejoin="round"/>
<path d="M20.1142 3.36133C21.886 4.47977 23.316 6.06405 24.2477 7.94079" stroke="black" stroke-width="1.74041" stroke-linecap="round" stroke-linejoin="round"/>
<path d="M3.92841 7.94079C4.8601 6.06405 6.29009 4.47977 8.06189 3.36133" stroke="black" stroke-width="1.74041" stroke-linecap="round" stroke-linejoin="round"/>
</svg>
